<svg width="100%" viewBox="0 130 680 365" role="img" xmlns="http://www.w3.org/2000/svg" font-family="'Segoe UI', 'Helvetica Neue', Arial, sans-serif">
  <title>Stilisierte Karte: Bern mit Aare, Bielersee und Thunersee</title>
  <desc>Dekorative Darstellung mit dem Berner Zeitglockenturm im Zentrum und der türkisen Aare, die vom Thunersee im Südosten durch Bern zum Bielersee im Nordwesten fließt und eine Schlaufe um den Turm bildet. Die Darstellung zeigt umliegende Orte inklusive Burgdorf.</desc>
  <g>

    <path d="M348 268 C 374 266, 396 274, 410 290 C 424 304, 432 320, 430 338 C 428 360, 422 378, 408 392 C 392 404, 372 412, 346 412 C 318 412, 298 404, 282 392 C 268 378, 260 360, 258 338 C 256 316, 266 300, 280 288 C 296 278, 320 268, 348 268 Z"
          fill="#c66f52" fill-opacity="0.06" stroke="#c66f52" stroke-opacity="0.85" stroke-width="1.6" stroke-dasharray="5 5"/>

    <path d="M190 190 C 235 255, 248 310, 268 350 C 288 390, 320 401, 340 400 C 360 399, 398 395, 410 352 C 422 309, 452 350, 470 392"
          fill="none" stroke="#57b0b5" stroke-width="7.5" stroke-linecap="round" stroke-linejoin="round" opacity="1"/>

    <path d="M158 226 C 150 212, 172 190, 200 172 C 224 157, 248 146, 256 156 C 262 166, 240 188, 214 204 C 190 219, 168 234, 158 226 Z"
          fill="#57b0b5" stroke="#57b0b5" stroke-width="1.2" opacity="1"/>
    <path d="M438 366 C 430 352, 456 352, 480 366 C 504 380, 520 402, 512 416 C 504 430, 480 426, 460 414 C 440 402, 424 384, 438 366 Z"
          fill="#57b0b5" stroke="#57b0b5" stroke-width="1.2" opacity="1"/>

    <g transform="translate(340 360) scale(0.6) translate(-340 -360)">
      <ellipse cx="340" cy="364" rx="40" ry="6" fill="#cdbf9f" stroke="#b3a37e" stroke-width="0.6"/>

      <rect x="320" y="260" width="40" height="104" fill="#c3cdb8" stroke="#474c3d" stroke-width="1.3"/>
      <line x1="327" y1="262" x2="327" y2="360" stroke="#474c3d" stroke-width="0.5" opacity="0.4"/>
      <line x1="353" y1="262" x2="353" y2="360" stroke="#474c3d" stroke-width="0.5" opacity="0.4"/>

      <polygon points="308,260 372,260 340,210" fill="#944a3b" stroke="#5c2c23" stroke-width="1.2" stroke-linejoin="round"/>
      <line x1="316" y1="260" x2="340" y2="222" stroke="#5c2c23" stroke-width="0.5" opacity="0.45"/>
      <line x1="324" y1="260" x2="340" y2="234" stroke="#5c2c23" stroke-width="0.5" opacity="0.45"/>
      <line x1="364" y1="260" x2="340" y2="222" stroke="#5c2c23" stroke-width="0.5" opacity="0.45"/>
      <line x1="356" y1="260" x2="340" y2="234" stroke="#5c2c23" stroke-width="0.5" opacity="0.45"/>

      <rect x="334" y="218" width="12" height="12" fill="#2a2722" stroke="#5c2c23" stroke-width="0.6"/>
      <circle cx="338" cy="225" r="1.4" fill="#d4af37"/>
      <circle cx="343" cy="225" r="1.4" fill="#d4af37"/>

      <polygon points="333,250 347,250 340,239" fill="#7a3a2e" stroke="#5c2c23" stroke-width="0.8" stroke-linejoin="round"/>
      <path d="M335 250 L335 244 Q335 241 340 241 Q345 241 345 244 L345 250 Z" fill="#c3cdb8" stroke="#5c2c23" stroke-width="0.6"/>

      <polygon points="333,212 347,212 340,182" fill="#6f936f" stroke="#34402f" stroke-width="1" stroke-linejoin="round"/>
      <line x1="336" y1="205" x2="344" y2="205" stroke="#34402f" stroke-width="0.6"/>
      <line x1="337" y1="197" x2="343" y2="197" stroke="#34402f" stroke-width="0.6"/>
      <circle cx="340" cy="182" r="3" fill="#d4af37" stroke="#9a7d22" stroke-width="0.6"/>
      <line x1="340" y1="180" x2="340" y2="173" stroke="#d4af37" stroke-width="1.3" stroke-linecap="round"/>
      <circle cx="340" cy="172" r="1.8" fill="#d4af37"/>

      <circle cx="340" cy="300" r="16" fill="#caa42a" stroke="#7d6212" stroke-width="1.2"/>
      <circle cx="340" cy="300" r="11.5" fill="#29324d" stroke="#7d6212" stroke-width="0.8"/>
      <circle cx="340" cy="289" r="1.3" fill="#e6cf6a"/>
      <circle cx="351" cy="300" r="1.3" fill="#e6cf6a"/>
      <circle cx="340" cy="311" r="1.3" fill="#e6cf6a"/>
      <circle cx="329" cy="300" r="1.3" fill="#e6cf6a"/>
      <line x1="340" y1="300" x2="340" y2="291" stroke="#e6cf6a" stroke-width="1.3" stroke-linecap="round"/>
      <line x1="340" y1="300" x2="347" y2="303" stroke="#e6cf6a" stroke-width="1.1" stroke-linecap="round"/>
      <circle cx="340" cy="300" r="2" fill="#e6cf6a"/>

      <rect x="314" y="346" width="52" height="18" fill="#b7c1a8" stroke="#474c3d" stroke-width="1"/>
      <rect x="309" y="350" width="6" height="14" fill="#aab695" stroke="#474c3d" stroke-width="0.8"/>
      <rect x="365" y="350" width="6" height="14" fill="#aab695" stroke="#474c3d" stroke-width="0.8"/>
      <circle cx="326" cy="355" r="5" fill="#cf8a3a" stroke="#7a4a1c" stroke-width="0.8"/>
      <circle cx="326" cy="355" r="2.2" fill="#5e3413"/>
      <path d="M331 364 L331 350 Q331 343 340 343 Q349 343 349 350 L349 364 Z" fill="#2a2722"/>
    </g>
  </g>

  <g font-size="12" fill="#55524a">
    <circle cx="214" cy="356" r="5.5" fill="#c66f52"/>
    <text x="214" y="376" text-anchor="middle">Köniz</text>
    <circle cx="502" cy="288" r="5.5" fill="#c66f52"/>
    <text x="514" y="292" text-anchor="start">Worb</text>
    <circle cx="322" cy="452" r="5.5" fill="#c66f52"/>
    <text x="322" y="470" text-anchor="middle">Belp</text>
    <circle cx="392" cy="452" r="5.5" fill="#c66f52"/>
    <text x="396" y="470" text-anchor="start">Münsingen</text>
    <circle cx="288" cy="186" r="5.5" fill="#c66f52"/>
    <text x="288" y="178" text-anchor="middle">Zollikofen</text>
    <circle cx="476" cy="208" r="5.5" fill="#c66f52"/>
    <text x="476" y="196" text-anchor="middle">Burgdorf</text>
  </g>

</svg>
